<svg xmlns="http://www.w3.org/2000/svg" viewBox="0 0 64 64"><rect width="64" height="64" rx="14" fill="#082522"/><path d="M32 10c10 0 18 8 18 18 0 13-10 23-18 23S14 41 14 28c0-10 8-18 18-18Z" fill="none" stroke="#e9cda8" stroke-width="3"/><path d="M32 10v41M17 25h30M20 38h24M23 15c-7-6-13-5-17 1 5 1 9 5 11 10M41 15c7-6 13-5 17 1-5 1-9 5-11 10M14 35c-7 1-11 6-11 12 7 0 12-3 15-9M50 35c7 1 11 6 11 12-7 0-12-3-15-9" fill="none" stroke="#e9cda8" stroke-width="3" stroke-linecap="round"/><path d="M28 7c1-4 7-4 8 0" fill="none" stroke="#e9cda8" stroke-width="3" stroke-linecap="round"/></svg>
